<?xml version="1.0" encoding="utf-8"?>
<!-- Generator: Adobe Illustrator 26.0.3, SVG Export Plug-In . SVG Version: 6.00 Build 0)  -->
<svg version="1.1" id="レイヤー_1" xmlns="http://www.w3.org/2000/svg" xmlns:xlink="http://www.w3.org/1999/xlink" x="0px"
	 y="0px" viewBox="0 0 670 100" style="enable-background:new 0 0 670 100;" xml:space="preserve">
<style type="text/css">
	.st0{fill:url(#SVGID_1_);}
	.st1{fill:url(#SVGID_00000091694752399554659830000014194353283127937713_);}
	.st2{fill:url(#SVGID_00000022558878895305070960000002625344163905488022_);}
	.st3{fill:url(#SVGID_00000182495454735647239690000011266716112208415126_);}
	.st4{fill:url(#SVGID_00000059272613763712452720000008401416685937925820_);}
	.st5{fill:url(#SVGID_00000024692501017515119070000008418924634152062135_);}
	.st6{fill:url(#SVGID_00000053545050210265013330000001453557866904748940_);}
	.st7{fill:url(#SVGID_00000153665276076522445710000017588441543305475753_);}
	.st8{fill:url(#SVGID_00000172427354802660487430000009300485414568304023_);}
	.st9{fill:url(#SVGID_00000170244248187558397870000003926538532249227417_);}
	.st10{fill:url(#SVGID_00000166664885091809401460000008988455055966678182_);}
	.st11{fill:url(#SVGID_00000159434233482117831460000013378736685297187463_);}
	.st12{fill:url(#SVGID_00000114071293508369364620000004816723785752787381_);}
	.st13{fill:url(#SVGID_00000123430087072753179010000006053010682653548944_);}
	.st14{fill:url(#SVGID_00000158732304968382556020000015381936138666892981_);}
	.st15{fill:url(#SVGID_00000052810492280817392970000013469746211085411207_);}
	.st16{fill:#005C7E;}
	.st17{fill:url(#SVGID_00000157303274776298174450000006550881011172448899_);}
	.st18{fill:url(#SVGID_00000019658622534668195550000000336141297111034533_);}
	.st19{fill:url(#SVGID_00000072249982986897568730000004989558464629346978_);}
	.st20{fill:url(#SVGID_00000060017099276400298290000000522203502705610120_);}
	.st21{fill:url(#SVGID_00000117642135935678255840000004160645653533435283_);}
	.st22{fill:url(#SVGID_00000039120413973324312990000007017897675673948314_);}
	.st23{fill:url(#SVGID_00000036934778853737444810000012304087342343563449_);}
	.st24{fill:url(#SVGID_00000133530571121886542590000015243156998581637796_);}
	.st25{fill:url(#SVGID_00000015327265335351585350000012203141458405791152_);}
	.st26{fill:url(#SVGID_00000083081778929572343610000012669572125951871671_);}
	.st27{fill:url(#SVGID_00000160153639746417958080000003439154748985679744_);}
	.st28{fill:url(#SVGID_00000029014706440309740990000000922355225095480966_);}
	.st29{fill:url(#SVGID_00000058575249292889789330000002274965329136354952_);}
	.st30{fill:url(#SVGID_00000151531643661764765240000017882391947528214206_);}
	.st31{fill:url(#SVGID_00000090273841094117711670000016387595974450728365_);}
	.st32{fill:url(#SVGID_00000174587173150384463240000011441428364746419391_);}
	.st33{fill:url(#SVGID_00000150100831341039136600000012049155284999874465_);}
	.st34{fill:url(#SVGID_00000167379123195000361210000008836852602871785646_);}
	.st35{fill:url(#SVGID_00000100365442162132661400000015697193866171216286_);}
	.st36{fill:url(#SVGID_00000078023100536041885390000011565473676447135421_);}
</style>
<g>
	
		<linearGradient id="SVGID_1_" gradientUnits="userSpaceOnUse" x1="-2979.6145" y1="290.0815" x2="-2979.6145" y2="377.4114" gradientTransform="matrix(1 0 0 1 3011.7549 -283.6923)">
		<stop  offset="0" style="stop-color:#00B8EE"/>
		<stop  offset="1" style="stop-color:#006BB8"/>
	</linearGradient>
	<path class="st0" d="M33.4,84.5h8.3c3.8,0,6.9-3.1,6.9-6.9l0.5-6.9c0-0.5-0.4-1-0.9-1.1c-3.8-0.3-7.5-1.7-10.5-4.2
		c-1.1-1-0.7-2.8,1.1-1.8c3.2,1.8,6.8,2.4,10.4,2.1c0.1,0,0.2-0.1,0.2-0.2l0.5-7.7c0-0.9,0.8-1.7,1.7-1.7h4.2c1.9,0,3.2-2.1,2.3-3.8
		l-8.9-16.7c-0.5-1-0.8-2.1-0.8-3.2v-7.4c0-7.3-3.1-13.8-8.1-18.3c-1.3-1.2-3.1-1.6-4.8-1.2C16.5,9.8,6,23,6,49.6
		C6,71.2,12.9,84,25.7,90.3c0.4,0.2,0.9,0,1-0.4l0.4-1C28.1,86.2,30.6,84.5,33.4,84.5z M35.6,30.1c2.6,0,3.6,2.1,3.6,5.2
		c0,3.2-1.1,5.2-3.6,5.2c-2.6,0-3.6-2.1-3.6-5.2C31.9,32.2,33,30.1,35.6,30.1z"/>
	<g>
		<g>
			
				<linearGradient id="SVGID_00000045587253912969666930000003656768566205007272_" gradientUnits="userSpaceOnUse" x1="-2952.4705" y1="290.0815" x2="-2952.4705" y2="377.4114" gradientTransform="matrix(1 0 0 1 3011.7549 -283.6923)">
				<stop  offset="0" style="stop-color:#F29600"/>
				<stop  offset="1" style="stop-color:#E7380D"/>
			</linearGradient>
			<path style="fill:url(#SVGID_00000045587253912969666930000003656768566205007272_);" d="M59.3,40.2c2.4,0,3.5-2,3.5-5
				c0-3-1-5-3.5-5c-2.4,0-3.5,2-3.5,5C55.8,38.2,56.8,40.2,59.3,40.2z"/>
		</g>
		<g>
			
				<linearGradient id="SVGID_00000123421297878291433650000008589467875560277124_" gradientUnits="userSpaceOnUse" x1="-2940.5659" y1="290.0815" x2="-2940.5659" y2="377.4114" gradientTransform="matrix(1 0 0 1 3011.7549 -283.6923)">
				<stop  offset="0" style="stop-color:#F29600"/>
				<stop  offset="1" style="stop-color:#E7380D"/>
			</linearGradient>
			<path style="fill:url(#SVGID_00000123421297878291433650000008589467875560277124_);" d="M59.8,4.8c-0.6-0.1-0.9,0.6-0.4,1
				c6,4.7,9.8,12.1,9.8,20.2v7.2c0,1.2,0.3,2.3,0.9,3.4L78.9,53c0.9,1.7-0.3,3.8-2.3,3.8h-4c-1,0-1.8,0.8-1.8,1.8l-0.4,5.9
				c0,0.1-0.1,0.2-0.2,0.2c-3.2,0.1-6.5-0.5-9.3-2.1c-1.8-1-2.3,0.8-1.1,1.8c2.7,2.3,6,3.7,9.5,4.1c0.5,0.1,0.9,0.6,0.9,1.1
				l-0.6,8.6c0,3.8-3.1,6.9-6.9,6.9H60c-4.5,0-8.6,2.8-10.2,7L49,94.7c-0.1,0.3,0.1,0.6,0.4,0.6c28.1-0.4,44.1-12.8,44.1-45.6
				C93.4,21.1,81.4,8,59.8,4.8z"/>
		</g>
	</g>
	
		<linearGradient id="SVGID_00000138549808441375613190000005428623959337208741_" gradientUnits="userSpaceOnUse" x1="-2370.4446" y1="311.4664" x2="-2370.4446" y2="392.3716" gradientTransform="matrix(1 0 0 1 3011.7549 -283.6923)">
		<stop  offset="0" style="stop-color:#FFFFFF"/>
		<stop  offset="1" style="stop-color:#006BB8"/>
	</linearGradient>
	<path style="fill:url(#SVGID_00000138549808441375613190000005428623959337208741_);" d="M634.7,19.9c0.6-3.7,4.1-6.7,7.8-6.7
		s6.1,3,5.5,6.7c-0.6,3.7-4.2,6.7-7.8,6.7S634,23.6,634.7,19.9z"/>
	
		<linearGradient id="SVGID_00000088130829996828220240000002632588858429705619_" gradientUnits="userSpaceOnUse" x1="-2522.2749" y1="318.5078" x2="-2528.4231" y2="361.5447" gradientTransform="matrix(1 0 0 1 3011.7549 -283.6923)">
		<stop  offset="0" style="stop-color:#00B8EE"/>
		<stop  offset="1" style="stop-color:#006BB8"/>
	</linearGradient>
	<path style="fill:url(#SVGID_00000088130829996828220240000002632588858429705619_);" d="M483.5,42.1h-12l-2.1,12.2h12
		c5.5,0,9.4,4.2,9,9.6c0,0.6,0.4,1.1,1,1.1h10.2c0.5,0,0.9-0.4,1-0.9C504.2,51.9,495.9,42.1,483.5,42.1z"/>
	<g>
		
			<linearGradient id="SVGID_00000176732185067405118040000010476445533964134034_" gradientUnits="userSpaceOnUse" x1="-2544.2419" y1="294.7684" x2="-2553.0632" y2="370.1498" gradientTransform="matrix(1 0 0 1 3011.7549 -283.6923)">
			<stop  offset="0" style="stop-color:#F29600"/>
			<stop  offset="1" style="stop-color:#E7380D"/>
		</linearGradient>
		<path style="fill:url(#SVGID_00000176732185067405118040000010476445533964134034_);" d="M451.9,84.7c-0.1,0.6,0.4,1.2,1,1.2H463
			c0.5,0,0.9-0.4,1-0.8l5.4-30.7h-12.2L451.9,84.7z"/>
		
			<linearGradient id="SVGID_00000071517764870983697520000013889421079990093232_" gradientUnits="userSpaceOnUse" x1="-2541.8225" y1="295.0515" x2="-2550.6438" y2="370.433" gradientTransform="matrix(1 0 0 1 3011.7549 -283.6923)">
			<stop  offset="0" style="stop-color:#F29600"/>
			<stop  offset="1" style="stop-color:#E7380D"/>
		</linearGradient>
		<path style="fill:url(#SVGID_00000071517764870983697520000013889421079990093232_);" d="M475.5,13.4h-10.1c-0.5,0-0.9,0.4-1,0.8
			l-4.9,27.9h12.2l4.9-27.6C476.6,13.9,476.1,13.4,475.5,13.4z"/>
	</g>
	<g>
		
			<linearGradient id="SVGID_00000070105874633978098030000000623359249422261394_" gradientUnits="userSpaceOnUse" x1="-2353.7498" y1="298.4449" x2="-2364.175" y2="372.4897" gradientTransform="matrix(1 0 0 1 3011.7549 -283.6923)">
			<stop  offset="0" style="stop-color:#F29600"/>
			<stop  offset="1" style="stop-color:#E7380D"/>
		</linearGradient>
		<path style="fill:url(#SVGID_00000070105874633978098030000000623359249422261394_);" d="M658.4,13.3c-3.7,0-7.2,3-7.8,6.7
			c-0.6,3.7,1.8,6.7,5.5,6.7s7.2-3,7.8-6.7S662.1,13.3,658.4,13.3z"/>
		
			<linearGradient id="SVGID_00000109013343232849330340000012729589699591215254_" gradientUnits="userSpaceOnUse" x1="-2388.6465" y1="292.8867" x2="-2399.1926" y2="367.7908" gradientTransform="matrix(1 0 0 1 3011.7549 -283.6923)">
			<stop  offset="0" style="stop-color:#F29600"/>
			<stop  offset="1" style="stop-color:#E7380D"/>
		</linearGradient>
		<path style="fill:url(#SVGID_00000109013343232849330340000012729589699591215254_);" d="M606.1,84.8c-0.1,0.6,0.4,1.2,1,1.2h10.1
			c0.5,0,0.9-0.4,1-0.8l3.5-19.9h-12.2L606.1,84.8z"/>
		
			<linearGradient id="SVGID_00000170998092208549566300000002784963249280805278_" gradientUnits="userSpaceOnUse" x1="-2387.8118" y1="293.6492" x2="-2398.2368" y2="367.6941" gradientTransform="matrix(1 0 0 1 3011.7549 -283.6923)">
			<stop  offset="0" style="stop-color:#F29600"/>
			<stop  offset="1" style="stop-color:#E7380D"/>
		</linearGradient>
		<polygon style="fill:url(#SVGID_00000170998092208549566300000002784963249280805278_);" points="611.6,53 623.8,53 625.6,42.7 
			613.4,42.7 		"/>
		
			<linearGradient id="SVGID_00000090979166419771292530000007042941442209103545_" gradientUnits="userSpaceOnUse" x1="-2386.9292" y1="293.7734" x2="-2397.3542" y2="367.8183" gradientTransform="matrix(1 0 0 1 3011.7549 -283.6923)">
			<stop  offset="0" style="stop-color:#F29600"/>
			<stop  offset="1" style="stop-color:#E7380D"/>
		</linearGradient>
		<path style="fill:url(#SVGID_00000090979166419771292530000007042941442209103545_);" d="M629.6,13.4h-10.1c-0.5,0-0.9,0.4-1,0.8
			l-2.9,16.3h12.2l2.8-15.9C630.7,14,630.2,13.4,629.6,13.4z"/>
	</g>
	
		<linearGradient id="SVGID_00000159443823050781283250000018116883841466953113_" gradientUnits="userSpaceOnUse" x1="-2584.6423" y1="293.9645" x2="-2596.1365" y2="369.6132" gradientTransform="matrix(1 0 0 1 3011.7549 -283.6923)">
		<stop  offset="0" style="stop-color:#F29600"/>
		<stop  offset="1" style="stop-color:#E7380D"/>
	</linearGradient>
	<path style="fill:url(#SVGID_00000159443823050781283250000018116883841466953113_);" d="M414.3,13.8L412.2,26h6.4
		c3.7,0,6.1,3,5.5,6.6l-5.7,32.2c-0.8,4.4-4.8,8-9.1,8.4c-0.5,0-0.8,0.4-0.9,0.8l-1.8,10.1c-0.1,0.7,0.4,1.2,1.1,1.2
		c10.9-0.7,21-9.6,22.9-20.5l5.7-32.2c1.8-10.4-5.1-18.8-15.5-18.8"/>
	
		<linearGradient id="SVGID_00000067940765396967081340000001752676944159777167_" gradientUnits="userSpaceOnUse" x1="-2621.7441" y1="288.9449" x2="-2621.7441" y2="376.1491" gradientTransform="matrix(1 0 0 1 3011.7549 -283.6923)">
		<stop  offset="0" style="stop-color:#00B8EE"/>
		<stop  offset="1" style="stop-color:#006BB8"/>
	</linearGradient>
	<path style="fill:url(#SVGID_00000067940765396967081340000001752676944159777167_);" d="M400,26l-7.2,40.6
		c-0.6,3.7-3.4,6.6-7.1,6.6c-3.7,0-6.1-3-5.5-6.6l6-33.9c0.6-3.7,4.1-6.6,7.8-6.6H400l2.1-12.2l-5.9,0c-10.4,0-20.3,8.4-22.1,18.8
		l-6,33.9c-1.8,10.4,5.1,18.8,15.5,18.8c10.4,0,19.6-8.4,21.4-18.8l7.2-40.6H400z"/>
	<g>
		
			<linearGradient id="SVGID_00000136407832843164867440000013303765976551548088_" gradientUnits="userSpaceOnUse" x1="-2476.6926" y1="294.0375" x2="-2485.5137" y2="348.3015" gradientTransform="matrix(1 0 0 1 3011.7549 -283.6923)">
			<stop  offset="0" style="stop-color:#F29600"/>
			<stop  offset="1" style="stop-color:#E7380D"/>
		</linearGradient>
		<path style="fill:url(#SVGID_00000136407832843164867440000013303765976551548088_);" d="M539.5,13.4h-10.2c-0.5,0-0.9,0.3-1,0.8
			l-0.7,3.7h12.1l0.6-3.4C540.6,13.9,540.2,13.4,539.5,13.4z"/>
		
			<linearGradient id="SVGID_00000031181057222362606240000013164356576544715694_" gradientUnits="userSpaceOnUse" x1="-2479.0923" y1="293.6382" x2="-2487.9136" y2="347.9022" gradientTransform="matrix(1 0 0 1 3011.7549 -283.6923)">
			<stop  offset="0" style="stop-color:#F29600"/>
			<stop  offset="1" style="stop-color:#E7380D"/>
		</linearGradient>
		<path style="fill:url(#SVGID_00000031181057222362606240000013164356576544715694_);" d="M525.3,31.6c-0.3,1.6-1.8,2.7-3.4,2.7
			h-0.3c-0.5,0-0.8,0.3-0.9,0.8l-1.9,10.4c-0.1,0.6,0.3,1.1,0.9,1.1h1.9c7.4,0,13.7-5.3,15.1-12.5l0.8-4h-11.9L525.3,31.6z"/>
	</g>
	
		<linearGradient id="SVGID_00000085932843169623494960000007198579915559821217_" gradientUnits="userSpaceOnUse" x1="-2457.2537" y1="293.3382" x2="-2468.748" y2="368.7196" gradientTransform="matrix(1 0 0 1 3011.7549 -283.6923)">
		<stop  offset="0" style="stop-color:#00B8EE"/>
		<stop  offset="1" style="stop-color:#006BB8"/>
	</linearGradient>
	<path style="fill:url(#SVGID_00000085932843169623494960000007198579915559821217_);" d="M573.6,17.3l-5-3.8
		c-0.2-0.2-0.5-0.3-0.8-0.3h-4.6c-0.5,0-0.9,0.4-1,0.8l-0.5,3.7c0,0.1-0.1,0.2-0.3,0.2h-21.6l-2.3,12.2h20.8c0.6,0,1.1,0.6,1,1.2
		l-2.9,15.1c-1.1,6.2-4.3,12.3-9.1,17.1c-6.2,6.3-14.2,10-22.3,10.2c-0.5,0-0.9,0.4-1,0.8l-1.9,10.6c-0.1,0.4,0.3,0.8,0.7,0.8
		c11.8-0.2,23.6-5.6,32.7-14.8c6.9-7,11.5-15.8,13.1-24.8l5.3-28.2C574,17.9,573.9,17.5,573.6,17.3z"/>
	<polygon class="st16" points="527.7,17.9 525.6,30.1 537.5,30.1 539.9,17.9 	"/>
	<g>
		
			<linearGradient id="SVGID_00000082326160978515192750000003476878596007743395_" gradientUnits="userSpaceOnUse" x1="-2402.9988" y1="289.1184" x2="-2413.5654" y2="373.3799" gradientTransform="matrix(1 0 0 1 3011.7549 -283.6923)">
			<stop  offset="0" style="stop-color:#00B8EE"/>
			<stop  offset="1" style="stop-color:#006BB8"/>
		</linearGradient>
		<path style="fill:url(#SVGID_00000082326160978515192750000003476878596007743395_);" d="M596.1,31.3l-1.8,10.1
			c-0.1,0.6,0.4,1.2,1,1.2h18.2l2.1-12.2h-18.5C596.6,30.5,596.1,30.8,596.1,31.3z"/>
		
			<linearGradient id="SVGID_00000043449397533877463160000014947882246633084584_" gradientUnits="userSpaceOnUse" x1="-2371.9746" y1="292.8608" x2="-2382.5413" y2="377.1223" gradientTransform="matrix(1 0 0 1 3011.7549 -283.6923)">
			<stop  offset="0" style="stop-color:#00B8EE"/>
			<stop  offset="1" style="stop-color:#006BB8"/>
		</linearGradient>
		<path style="fill:url(#SVGID_00000043449397533877463160000014947882246633084584_);" d="M645.1,41.8l1.8-10.1
			c0.1-0.6-0.4-1.2-1-1.2h-18.2l-2.1,12.2h18.5C644.6,42.7,645.1,42.3,645.1,41.8z"/>
		
			<linearGradient id="SVGID_00000023241601887766946970000002495236442378887825_" gradientUnits="userSpaceOnUse" x1="-2406.1328" y1="288.4345" x2="-2416.6946" y2="372.6571" gradientTransform="matrix(1 0 0 1 3011.7549 -283.6923)">
			<stop  offset="0" style="stop-color:#00B8EE"/>
			<stop  offset="1" style="stop-color:#006BB8"/>
		</linearGradient>
		<path style="fill:url(#SVGID_00000023241601887766946970000002495236442378887825_);" d="M587.9,53.9L586.2,64
			c-0.1,0.6,0.4,1.2,1,1.2h22.3l2.1-12.2h-22.7C588.4,53,588,53.4,587.9,53.9z"/>
		
			<linearGradient id="SVGID_00000008856105224459217280000002110927087766671753_" gradientUnits="userSpaceOnUse" x1="-2371.0315" y1="292.6933" x2="-2381.593" y2="376.9158" gradientTransform="matrix(1 0 0 1 3011.7549 -283.6923)">
			<stop  offset="0" style="stop-color:#00B8EE"/>
			<stop  offset="1" style="stop-color:#006BB8"/>
		</linearGradient>
		<path style="fill:url(#SVGID_00000008856105224459217280000002110927087766671753_);" d="M646.1,53h-22.3l-2.1,12.2h22.7
			c0.5,0,0.9-0.4,1-0.8l1.8-10.1C647.2,53.6,646.7,53,646.1,53z"/>
		
			<linearGradient id="SVGID_00000183242144640762199750000016195477308036781218_" gradientUnits="userSpaceOnUse" x1="-2369.1985" y1="293.681" x2="-2379.6235" y2="376.8144" gradientTransform="matrix(1 0 0 1 3011.7549 -283.6923)">
			<stop  offset="0" style="stop-color:#00B8EE"/>
			<stop  offset="1" style="stop-color:#006BB8"/>
		</linearGradient>
		<path style="fill:url(#SVGID_00000183242144640762199750000016195477308036781218_);" d="M642.5,13.3c-3.7,0-7.2,3-7.8,6.7
			c-0.6,3.7,1.8,6.7,5.5,6.7c3.7,0,7.2-3,7.8-6.7C648.6,16.3,646.2,13.3,642.5,13.3z"/>
	</g>
	<g>
		
			<linearGradient id="SVGID_00000141415442033683166200000017544358961391414915_" gradientUnits="userSpaceOnUse" x1="-2859.5383" y1="289.7461" x2="-2870.7654" y2="363.5237" gradientTransform="matrix(1 0 0 1 3011.7549 -283.6923)">
			<stop  offset="0" style="stop-color:#F29600"/>
			<stop  offset="1" style="stop-color:#E7380D"/>
		</linearGradient>
		<path style="fill:url(#SVGID_00000141415442033683166200000017544358961391414915_);" d="M164.9,25.5h-12.2l-4.2,23.7h-7.3
			c-11.1,0-21.8,7.9-23.7,19c-2,11.1,5.5,20.2,16.6,20.2c11.1,0,21.1-9.1,23-20.2l1.4-6.9h10.2l2.1-12.2h-10.2L164.9,25.5z
			 M145,68.2c-0.8,4.4-4.3,8-8.7,8s-6.2-3.6-5.4-8c0.8-4.4,3.8-6.9,8.3-6.9h7.3L145,68.2z"/>
		
			<linearGradient id="SVGID_00000035497780935190137600000003770916365567431339_" gradientUnits="userSpaceOnUse" x1="-2818.4871" y1="295.9931" x2="-2829.7141" y2="369.7706" gradientTransform="matrix(1 0 0 1 3011.7549 -283.6923)">
			<stop  offset="0" style="stop-color:#F29600"/>
			<stop  offset="1" style="stop-color:#E7380D"/>
		</linearGradient>
		<path style="fill:url(#SVGID_00000035497780935190137600000003770916365567431339_);" d="M191.3,49.2h-8.3l-2.1,12.2h8.6
			c0.5,0,0.9-0.4,1-0.8l1.8-10.1C192.5,49.8,192,49.2,191.3,49.2z"/>
	</g>
	<g>
		
			<linearGradient id="SVGID_00000029759672584510982030000003862997656539079841_" gradientUnits="userSpaceOnUse" x1="-2864.8936" y1="294.8267" x2="-2872.6455" y2="360.8523" gradientTransform="matrix(1 0 0 1 3011.7549 -283.6923)">
			<stop  offset="0" style="stop-color:#00B8EE"/>
			<stop  offset="1" style="stop-color:#006BB8"/>
		</linearGradient>
		<path style="fill:url(#SVGID_00000029759672584510982030000003862997656539079841_);" d="M138.8,14.2l-1.8,10.1
			c-0.1,0.6,0.4,1.2,1,1.2h14.7l2.1-12.2h-15C139.3,13.4,138.9,13.7,138.8,14.2z"/>
		
			<linearGradient id="SVGID_00000064342500909685845170000013895923403149332372_" gradientUnits="userSpaceOnUse" x1="-2832.1616" y1="298.6697" x2="-2839.9136" y2="364.6953" gradientTransform="matrix(1 0 0 1 3011.7549 -283.6923)">
			<stop  offset="0" style="stop-color:#00B8EE"/>
			<stop  offset="1" style="stop-color:#006BB8"/>
		</linearGradient>
		<path style="fill:url(#SVGID_00000064342500909685845170000013895923403149332372_);" d="M164.6,85c-0.1,0.6,0.4,1.2,1,1.2h10.1
			c0.5,0,0.9-0.4,1-0.8l4.2-23.9h-12.2L164.6,85z"/>
		
			<linearGradient id="SVGID_00000097494355917179012680000012380855946495809207_" gradientUnits="userSpaceOnUse" x1="-2830.3899" y1="298.8777" x2="-2838.1421" y2="364.9033" gradientTransform="matrix(1 0 0 1 3011.7549 -283.6923)">
			<stop  offset="0" style="stop-color:#00B8EE"/>
			<stop  offset="1" style="stop-color:#006BB8"/>
		</linearGradient>
		<path style="fill:url(#SVGID_00000097494355917179012680000012380855946495809207_);" d="M184.4,35h-10.1c-0.5,0-0.9,0.4-1,0.8
			l-2.3,13.3h12.2l2.3-13C185.5,35.6,185,35,184.4,35z"/>
	</g>
	
		<linearGradient id="SVGID_00000063628427396645576860000007868059946136938394_" gradientUnits="userSpaceOnUse" x1="-2759.6963" y1="295.285" x2="-2766.9138" y2="381.0915" gradientTransform="matrix(1 0 0 1 3011.7549 -283.6923)">
		<stop  offset="0" style="stop-color:#F29600"/>
		<stop  offset="1" style="stop-color:#E7380D"/>
	</linearGradient>
	<path style="fill:url(#SVGID_00000063628427396645576860000007868059946136938394_);" d="M272.4,53.3h-10.1c-0.5,0-0.9,0.4-1,0.8
		l-3,15.9c-0.6,3.4-3.9,6.2-7.3,6.2c-3.4,0-5.7-2.8-5.1-6.2l1-4.8c1.9-10.9-5.4-19.8-16.3-19.8h-5.3l-2.1,12.2h5.3
		c4.2,0,7,3.4,6.3,7.6l-1,4.8c-1.8,10.1,5,18.4,15.1,18.4s19.8-8.2,21.6-18.4l3-15.6C273.5,53.8,273.1,53.3,272.4,53.3z"/>
	<g>
		
			<linearGradient id="SVGID_00000036962273182870579270000012387718927908936848_" gradientUnits="userSpaceOnUse" x1="-2789.4263" y1="298.2611" x2="-2799.5842" y2="373.9099" gradientTransform="matrix(1 0 0 1 3011.7549 -283.6923)">
			<stop  offset="0" style="stop-color:#00B8EE"/>
			<stop  offset="1" style="stop-color:#006BB8"/>
		</linearGradient>
		<path style="fill:url(#SVGID_00000036962273182870579270000012387718927908936848_);" d="M206.2,85c-0.1,0.6,0.4,1.2,1,1.2h10.1
			c0.5,0,0.9-0.4,1-0.8l4.9-27.7H211L206.2,85z"/>
		
			<linearGradient id="SVGID_00000178203271325141006950000004889207628508357534_" gradientUnits="userSpaceOnUse" x1="-2787.7551" y1="298.4855" x2="-2797.9131" y2="374.1343" gradientTransform="matrix(1 0 0 1 3011.7549 -283.6923)">
			<stop  offset="0" style="stop-color:#00B8EE"/>
			<stop  offset="1" style="stop-color:#006BB8"/>
		</linearGradient>
		<path style="fill:url(#SVGID_00000178203271325141006950000004889207628508357534_);" d="M229.7,13.4h-10.1c-0.5,0-0.9,0.4-1,0.8
			l-5.4,31.2h12.2l5.4-30.9C230.8,13.9,230.4,13.4,229.7,13.4z"/>
	</g>
	<g>
		
			<linearGradient id="SVGID_00000113319077178138513270000013665352265746786176_" gradientUnits="userSpaceOnUse" x1="-2670.2454" y1="296.8732" x2="-2679.0667" y2="380.5412" gradientTransform="matrix(1 0 0 1 3011.7549 -283.6923)">
			<stop  offset="0" style="stop-color:#F29600"/>
			<stop  offset="1" style="stop-color:#E7380D"/>
		</linearGradient>
		<path style="fill:url(#SVGID_00000113319077178138513270000013665352265746786176_);" d="M342.5,48h-9.7l-2.1,12.2h10
			c0.5,0,0.9-0.4,1-0.8l1.8-10.1C343.6,48.6,343.2,48,342.5,48z"/>
		
			<linearGradient id="SVGID_00000174594161031704439310000017950981380759390651_" gradientUnits="userSpaceOnUse" x1="-2696.2693" y1="294.1295" x2="-2705.0906" y2="377.7975" gradientTransform="matrix(1 0 0 1 3011.7549 -283.6923)">
			<stop  offset="0" style="stop-color:#F29600"/>
			<stop  offset="1" style="stop-color:#E7380D"/>
		</linearGradient>
		<path style="fill:url(#SVGID_00000174594161031704439310000017950981380759390651_);" d="M317.2,67.9c-0.8,4.6-5,8.3-9.4,8.4
			c0,0-0.1,0-0.1,0c-2.1,0-4-0.8-5.2-2.3c-1.3-1.5-1.7-3.6-1.3-5.8c0.8-4.4,5.2-7.9,9.8-7.9h7.6l2.1-12.2h-7.6
			c-11.2,0-22,8.9-24.1,19.9c-1,5.5,0.2,10.6,3.3,14.5c3.1,3.8,7.8,5.9,13.2,5.9c0.1,0,0.2,0,0.3,0c11-0.1,21.6-9.3,23.6-20.5
			l1.3-7.6h-12.2L317.2,67.9z"/>
		
			<linearGradient id="SVGID_00000042704457566204737960000000973814890463342505_" gradientUnits="userSpaceOnUse" x1="-2721.5911" y1="291.4597" x2="-2730.4124" y2="375.1278" gradientTransform="matrix(1 0 0 1 3011.7549 -283.6923)">
			<stop  offset="0" style="stop-color:#F29600"/>
			<stop  offset="1" style="stop-color:#E7380D"/>
		</linearGradient>
		<path style="fill:url(#SVGID_00000042704457566204737960000000973814890463342505_);" d="M294.4,22h-9.9c-0.5,0-0.9,0.4-1,0.8
			L281.7,33c-0.1,0.6,0.4,1.2,1,1.2h9.6L294.4,22z"/>
		
			<linearGradient id="SVGID_00000014620354696881987100000005385110205371098526_" gradientUnits="userSpaceOnUse" x1="-2698.9756" y1="293.8441" x2="-2707.7969" y2="377.5121" gradientTransform="matrix(1 0 0 1 3011.7549 -283.6923)">
			<stop  offset="0" style="stop-color:#F29600"/>
			<stop  offset="1" style="stop-color:#E7380D"/>
		</linearGradient>
		<path style="fill:url(#SVGID_00000014620354696881987100000005385110205371098526_);" d="M315.4,33.4l1.8-10.1
			c0.1-0.6-0.4-1.2-1-1.2h-9.6l-2.1,12.2h9.9C314.9,34.2,315.3,33.8,315.4,33.4z"/>
	</g>
	
		<linearGradient id="SVGID_00000166638824964329168690000002203162122576947110_" gradientUnits="userSpaceOnUse" x1="-2670.093" y1="297.5985" x2="-2678.9143" y2="345.7143" gradientTransform="matrix(1 0 0 1 3011.7549 -283.6923)">
		<stop  offset="0" style="stop-color:#00B8EE"/>
		<stop  offset="1" style="stop-color:#006BB8"/>
	</linearGradient>
	<path style="fill:url(#SVGID_00000166638824964329168690000002203162122576947110_);" d="M353.9,20.9h-14.5
		c-7.7,0-15,6.2-16.4,13.9L320.7,48h12.2l2.3-13.3c0.2-1,1.1-1.7,2.1-1.7h14.8c0.5,0,0.9-0.4,1-0.8l1.8-10.1
		C355,21.4,354.5,20.9,353.9,20.9z"/>
	<g>
		
			<linearGradient id="SVGID_00000024698448266998420100000013245443876969381307_" gradientUnits="userSpaceOnUse" x1="-2710.1348" y1="298.4543" x2="-2716.8176" y2="351.649" gradientTransform="matrix(1 0 0 1 3011.7549 -283.6923)">
			<stop  offset="0" style="stop-color:#00B8EE"/>
			<stop  offset="1" style="stop-color:#006BB8"/>
		</linearGradient>
		<path style="fill:url(#SVGID_00000024698448266998420100000013245443876969381307_);" d="M306.9,13.7h-10.1c-0.5,0-0.9,0.4-1,0.8
			l-1.3,7.5h12.2l1.3-7.2C308,14.2,307.5,13.7,306.9,13.7z"/>
		
			<linearGradient id="SVGID_00000158019360920128819450000011816533711981211278_" gradientUnits="userSpaceOnUse" x1="-2711.1013" y1="298.3329" x2="-2717.7839" y2="351.5276" gradientTransform="matrix(1 0 0 1 3011.7549 -283.6923)">
			<stop  offset="0" style="stop-color:#00B8EE"/>
			<stop  offset="1" style="stop-color:#006BB8"/>
		</linearGradient>
		<path style="fill:url(#SVGID_00000158019360920128819450000011816533711981211278_);" d="M291,41.4c-0.1,0.6,0.4,1.2,1,1.2h10.1
			c0.5,0,0.9-0.4,1-0.8l1.3-7.5h-12.2L291,41.4z"/>
	</g>
	<polygon class="st16" points="459.4,42.1 457.3,54.3 469.4,54.3 471.6,42.1 	"/>
	<polygon class="st16" points="627.8,30.5 615.6,30.5 613.4,42.7 625.6,42.7 	"/>
	<polygon class="st16" points="611.6,53 609.5,65.2 621.6,65.2 623.8,53 	"/>
	<polygon class="st16" points="318.6,60.2 330.7,60.2 332.9,48 320.7,48 	"/>
	<path class="st16" d="M165.8,20.5c0.6-3.7-2.1-7-5.8-7.1h-5.1l-2.1,12.2h12.2L165.8,20.5z"/>
	<polygon class="st16" points="402.2,13.8 400,26 412.2,26 414.3,13.8 	"/>
	<polygon class="st16" points="170.9,49.2 168.8,61.4 180.9,61.4 183.1,49.2 	"/>
	<polygon class="st16" points="213.2,45.4 211,57.6 223.2,57.6 225.4,45.4 	"/>
	<polygon class="st16" points="294.4,22 292.3,34.2 304.5,34.2 306.6,22 	"/>
</g>
</svg>
